<svg width="48" height="48" viewBox="0 0 48 48" fill="none" xmlns="http://www.w3.org/2000/svg">
<path d="M0 24C0 10.7452 10.7452 0 24 0C37.2548 0 48 10.7452 48 24C48 37.2548 37.2548 48 24 48C10.7452 48 0 37.2548 0 24Z" fill="#0B5A94"/>
<path d="M30.8911 11.406C31.4723 11.406 31.9953 11.0531 32.213 10.5142C32.4308 9.97534 32.2995 9.35824 31.8814 8.95453L24.9903 2.30106C24.4379 1.76765 23.5622 1.76765 23.0097 2.30106L16.1186 8.95453C15.7005 9.35824 15.5693 9.97534 15.787 10.5142C16.0047 11.0531 16.5277 11.406 17.1089 11.406H19.0099V36.5941H17.1089C16.5277 36.5941 16.0047 36.9469 15.787 37.4858C15.5693 38.0247 15.7005 38.6418 16.1186 39.0455L23.0097 45.699C23.5622 46.2324 24.4379 46.2324 24.9903 45.699L31.8814 39.0455C32.2995 38.6418 32.4308 38.0247 32.213 37.4858C31.9953 36.9469 31.4723 36.5941 30.8911 36.5941H28.9901V11.406H30.8911Z" fill="#BBE2FF"/>
<path d="M11.406 17.1089C11.406 16.5277 11.0531 16.0047 10.5142 15.787C9.97534 15.5693 9.35824 15.7005 8.95453 16.1186L2.30106 23.0097C1.76765 23.5622 1.76765 24.4379 2.30106 24.9903L8.95453 31.8814C9.35824 32.2995 9.97534 32.4308 10.5142 32.2131C11.0531 31.9953 11.406 31.4723 11.406 30.8911V28.9901L36.5941 28.9901V30.8911C36.5941 31.4723 36.9469 31.9953 37.4858 32.2131C38.0247 32.4308 38.6418 32.2995 39.0455 31.8814L45.699 24.9903C46.2324 24.4379 46.2324 23.5622 45.699 23.0097L39.0455 16.1186C38.6418 15.7005 38.0247 15.5693 37.4858 15.787C36.9469 16.0047 36.5941 16.5277 36.5941 17.1089V19.0099L11.406 19.0099V17.1089Z" fill="#BBE2FF"/>
<path d="M14.4951 19.2475C14.4951 16.6228 16.6228 14.4951 19.2475 14.4951H28.7525C31.3772 14.4951 33.505 16.6228 33.505 19.2475V28.7525C33.505 31.3772 31.3772 33.505 28.7525 33.505H19.2475C16.6228 33.505 14.4951 31.3772 14.4951 28.7525V19.2475Z" fill="#72C4FF"/>
<path fill-rule="evenodd" clip-rule="evenodd" d="M14.503 29.0289L19.5319 24L14.503 18.9712C14.6409 16.5665 16.5665 14.6409 18.9712 14.503L24 19.5319L29.0289 14.503C31.4335 14.6409 33.3592 16.5665 33.4971 18.9712L28.4682 24L33.4971 29.0289C33.3592 31.4335 31.4335 33.3592 29.0289 33.4971L24 28.4682L18.9712 33.4971C16.5665 33.3592 14.6409 31.4335 14.503 29.0289Z" fill="#2090E0"/>
</svg>
